PathFileType	4	(X/Y/Z)	C:\Users\u0145647\OneDrive - KU Leuven\KU Leuven\c3d2osim\CP4\T0\Data\Processed\ViconC3D_CP4_2\CP4_T0_12_gapFilled.trc
DataRate	CameraRate	NumFrames	NumMarkers	Units	OrigDataRate	OrigDataStartFrame	OrigNumFrames
100.000000	100.000000	8	47	mm	100.000000	194	516
Frame#	Time	C7			T10			CLAV			STRN			LSHO			RSHO			RBAK			LASI			RASI			LPSI			RPSI			LLAT			RLAT			LF1			LF2			LF3			LTHI			LKNE			LMEK			RF1			RF2			RF3			RTHI			RKNE			RMEK			LT1			LT2			LT3			LTIB			LANK			LMM			RT1			RT2			RT3			RTIB			RANK			RMM			LHEE			LSTL			LLCA			LTOE			LCM5			RHEE			RSTL			RLCA			RTOE			RCM5
		X1	Y1	Z1	X2	Y2	Z2	X3	Y3	Z3	X4	Y4	Z4	X5	Y5	Z5	X6	Y6	Z6	X7	Y7	Z7	X8	Y8	Z8	X9	Y9	Z9	X10	Y10	Z10	X11	Y11	Z11	X12	Y12	Z12	X13	Y13	Z13	X14	Y14	Z14	X15	Y15	Z15	X16	Y16	Z16	X17	Y17	Z17	X18	Y18	Z18	X19	Y19	Z19	X20	Y20	Z20	X21	Y21	Z21	X22	Y22	Z22	X23	Y23	Z23	X24	Y24	Z24	X25	Y25	Z25	X26	Y26	Z26	X27	Y27	Z27	X28	Y28	Z28	X29	Y29	Z29	X30	Y30	Z30	X31	Y31	Z31	X32	Y32	Z32	X33	Y33	Z33	X34	Y34	Z34	X35	Y35	Z35	X36	Y36	Z36	X37	Y37	Z37	X38	Y38	Z38	X39	Y39	Z39	X40	Y40	Z40	X41	Y41	Z41	X42	Y42	Z42	X43	Y43	Z43	X44	Y44	Z44	X45	Y45	Z45	X46	Y46	Z46	X47	Y47	Z47

194	1.93	500.72	1407.7	-59.316	528.36	1145.4	-33.805	386.82	1321.5	-68.783	356.89	1171.8	-73.067	416.52	1365.5	149.92	480.51	1350.5	-253.78	556.63	1316.8	-171.94	354.51	887.03	0.70728	441.79	871.78	-177.42	533.8	937.57	18.233	564.13	935.97	-50.009	381.63	954.55	74.278	505.14	953.21	-197.68	289.47	661.62	75.602	316.4	698.95	88.52	317.67	646.93	88.141	271.89	578.04	116.98	237.49	466.62	27.707	NaN	NaN	NaN	529.44	591.43	-193.85	506.47	622.54	-193.12	568.46	628.58	-188.9	524.53	529.5	-233.58	525.08	405.3	-165.97	NaN	NaN	NaN	303.77	300.46	59.242	257.81	331.92	33.763	301.09	344.6	59.579	253.46	219.78	60.115	375.55	74.635	39.377	372.34	82.948	-49.917	653.51	332.87	-192.27	606.07	336.66	-173.52	628.96	379.88	-192.86	700.66	279.28	-235.13	870.41	207.27	-191.46	855.23	218.26	-106.38	431.71	60.78	-1.0684	376.29	52.292	-45.227	374.57	46.234	33.405	255.11	44.129	-11.962	265.79	35.062	36.025	901.78	255.51	-160.24	885.66	203.41	-110.51	889.95	190.47	-187.93	848.85	86.607	-124.01	873.92	84.22	-174.71
195	1.94	484.56	1412	-59.49	511.88	1149.9	-33.448	370.75	1325.9	-70.186	340.71	1176.3	-74.686	398.35	1369.7	148.86	466.46	1355.2	-254.14	541.6	1321.5	-171.42	337.61	891.63	2.173	424.74	875.63	-176.26	518.99	942.41	18.307	547.51	939.89	-49.535	365.52	959.61	74.853	488.95	956.73	-196.87	277.32	662.82	76.1	303.53	700.67	89.047	305.97	648.63	88.852	261.78	578.87	117.4	232.13	465.3	28.558	NaN	NaN	NaN	504	594.82	-194.31	482.13	626.62	-193.25	544.04	630.9	-188.74	496.86	533.52	-234.4	494.02	409.03	-167.28	NaN	NaN	NaN	300.12	298.91	59.666	254.4	330.35	33.893	297.29	343.46	60.448	251.79	218.78	60.03	375.38	74.639	39.901	372.16	83.201	-49.422	621.11	335.09	-192.64	573.81	339.26	-173.71	597.09	382.18	-193.56	667.72	280.62	-235.26	836.76	207.28	-191.36	821.37	218.19	-106.28	431.63	61.108	-0.63552	376.37	52.506	-44.965	374.6	46.149	33.66	255.15	44.052	-11.789	265.79	34.892	36.193	869.3	254.57	-159.66	851.53	202.75	-110.15	855.87	190.22	-187.63	809.71	87.6	-125.66	835.49	84.578	-175.9
196	1.95	468.47	1416.7	-59.728	495.65	1154.7	-33.401	354.92	1330.4	-71.585	324.82	1181	-76.206	380.59	1374.2	147.59	452.69	1360	-254.4	526.7	1326.4	-170.9	321.09	896.35	3.8806	407.46	879.86	-175.15	502.69	946.56	18.417	531.09	944.09	-49.382	349.91	964.85	75.601	472.23	960.74	-196.31	266.2	663.62	77.047	291.16	701.95	90.05	295.11	649.85	89.485	252.87	579.11	118.2	227.01	463.98	29.138	NaN	NaN	NaN	478.46	599.29	-194.56	457.74	631.62	-193.84	519.93	634.31	-188.73	469.79	538.47	-235.39	462.63	413.87	-168.75	NaN	NaN	NaN	297.64	298.07	60.289	251.58	329.09	34.549	294.09	342.4	61.068	249.27	216.86	59.847	375.1	74.478	40.169	371.98	83.495	-49.049	588.58	337.99	-193.14	541.01	342.8	-174.83	565.43	385.22	-193.89	634.63	283.47	-235.91	801.64	206.51	-190.94	786.18	217.41	-105.85	431.59	61.372	-0.27164	376.08	52.947	-44.771	374.49	46.289	33.95	255.17	44.037	-11.614	265.78	34.742	36.394	835.54	252.63	-158.69	816.01	201.11	-109.55	820.54	189.09	-187.63	769.29	87.832	-127.22	795.21	84.459	-177.17
197	1.96	452.55	1421.4	-60.218	479.67	1159.3	-33.307	339.25	1335.1	-73.077	309.03	1185.9	-77.663	363.13	1379	146.19	439.13	1364.8	-254.88	511.87	1331.3	-170.49	304.54	901.14	5.6223	389.65	884.54	-174.14	484.87	950.08	18.882	514.64	948.21	-49.527	334.43	970.43	76.472	455.17	964.91	-195.85	255.27	663.81	77.943	279.92	702.65	90.897	284.87	650.84	90.426	245.28	578.22	118.35	222.57	462.62	30.499	NaN	NaN	NaN	453.23	604.49	-195.42	433.66	637.3	-194.66	495.61	638.22	-188.81	443.52	544.13	-236.39	431.39	419.53	-170.27	NaN	NaN	NaN	295.52	297.28	61.241	249.37	327.99	35.741	292.15	341.59	62	248.4	215.87	60.387	375.1	74.161	40.426	371.31	84.111	-48.672	555.86	341.62	-193.91	508.14	346.93	-176.1	533.9	389.53	-194.13	601.22	286.84	-236.86	765.78	205.61	-190.54	749.7	215.52	-105.17	431.55	61.705	0.19874	376.36	52.996	-44.422	374.48	46.255	34.395	255.14	44.052	-11.442	265.76	34.594	36.622	800.7	250.01	-157.33	779.3	198.52	-108.85	783.23	187.16	-186.39	727.63	87.47	-129.28	753.77	84.18	-178.89
198	1.97	436.7	1426	-60.913	463.82	1163.9	-33.185	323.89	1339.7	-74.52	293.44	1190.6	-79.052	345.91	1383.8	144.77	425.5	1369.6	-255.33	496.99	1336.1	-170.01	288.64	905.69	7.3115	372.52	889.15	-173.24	468.43	954	18.735	498.47	952.44	-49.643	318.98	975.9	77.119	437.97	969.42	-195.43	245.55	663.58	79.031	268.73	703.4	92.134	275.38	651.51	91.461	238.64	577.63	119.26	218.41	461.79	31.901	NaN	NaN	NaN	428.44	610.05	-196.1	410.06	643.52	-195.91	471.55	642.44	-188.47	417.9	549.8	-237.35	400.12	425.8	-171.75	NaN	NaN	NaN	294.07	296.98	62.563	247.36	327.42	37.212	289.81	341.48	63.603	247.79	215.46	62.478	374.75	74.448	41.268	371.62	84.267	-48.057	522.78	345.32	-194.72	474.9	351.72	-177.31	502.27	393.89	-193.98	567.28	289.6	-237.41	728.98	204.18	-190.03	712.3	213.32	-104.36	431.47	62.159	0.78945	376.34	53.476	-43.797	374.42	46.375	34.927	255.19	44.115	-11.129	265.77	34.463	36.935	765	246.74	-155.5	741.42	195.17	-108	745.42	184.85	-185.72	684.76	87.1	-132.19	711.07	84.15	-181.71
199	1.98	420.88	1430.4	-61.64	448.15	1168.4	-33.224	308.47	1344.1	-75.966	277.8	1195.2	-80.274	328.97	1388.6	143.26	411.88	1374.1	-255.77	482.11	1340.7	-169.74	272.36	910.17	8.7638	354.98	894	-172.47	452.24	957.8	18.725	482.93	956.76	-49.938	303.38	981.33	77.543	420.58	973.87	-195.21	235.97	663.79	80.518	258.11	704	92.975	266.45	652.15	92.037	232.75	577.24	120.33	214.69	460.82	33.107	NaN	NaN	NaN	403.7	615.81	-197.04	386.3	649.82	-197.05	447.67	647.04	-189.29	392.25	555.91	-238.2	368.68	432.63	-172.72	NaN	NaN	NaN	292.71	297	64.216	245.28	327.04	38.841	288.3	341.33	65.12	247.25	214.91	63.932	374.5	74.549	41.897	371.46	84.724	-47.513	489.38	348.88	-195.1	441.34	356.56	-178.66	470.54	398.46	-193.84	532.89	292.3	-238.06	691.51	202.69	-189.46	673.74	210.26	-103.61	431.16	62.579	1.5917	376.25	53.927	-43.228	374.32	46.507	35.443	255.2	44.201	-10.832	265.74	34.314	37.223	728.46	243.07	-153.41	702.84	191.5	-107.04	707.51	182.69	-185.49	641.06	86.628	-135.73	667.79	84.204	-184.87
200	1.99	404.86	1434.2	-62.546	432.46	1172.3	-33.191	293.12	1348.1	-77.374	262.21	1199.5	-81.358	312.25	1393.2	141.77	398.15	1378.2	-256.29	467.1	1345	-169.41	256.71	914.25	10.181	337.4	898.74	-171.75	436.07	961.58	18.762	465.48	960.23	-50.334	287.48	986.56	77.751	403.16	978.45	-195.04	226.53	663.79	81.577	247.34	704.85	93.99	257.6	653.15	93.031	226.6	578.05	121.52	211.26	460.06	35.15	NaN	NaN	NaN	379.17	621.57	-197.87	362.81	656.2	-198.25	423.83	651.54	-189.68	366.75	561.78	-239.18	337.44	439.44	-173.86	NaN	NaN	NaN	291.66	296.83	65.436	244.75	326.26	40.47	286.79	341.53	66.534	246.61	214.49	65.765	374.58	74.583	42.329	371.3	85.361	-46.715	455.81	352.38	-195.44	407.89	361.4	-179.5	438.68	402.68	-193.93	498.3	295.33	-238.56	652.92	200.48	-188.37	634.57	207.06	-103.06	430.7	62.812	2.3129	375.87	54.881	-42.816	374.39	46.747	36.118	255.26	44.203	-10.47	265.62	34.26	37.554	690.99	238.94	-151.11	662.83	186.84	-106.49	667.89	179.75	-184.29	597.04	85.878	-139.68	624.25	84.316	-188.43
201	2	389.02	1437.7	-63.265	416.76	1176	-33.033	277.8	1351.7	-78.693	246.63	1203.3	-82.342	295.63	1397.5	140.26	384.3	1381.9	-256.77	452.02	1348.9	-169.19	240.76	917.83	11.289	319.74	903.09	-171.16	420.12	965.04	18.511	448.96	963.57	-50.869	271.4	991.38	77.888	385.79	982.52	-194.98	217.04	664.1	82.652	236.29	705.95	94.625	248.59	654.27	93.656	220.45	578.86	122.7	208.1	459.42	36.629	NaN	NaN	NaN	354.37	627.19	-198.76	339.11	662.27	-199.3	399.89	655.78	-190.27	341.02	567.44	-240.13	306.25	446.38	-174.65	NaN	NaN	NaN	290.58	296.96	66.859	242.72	326.36	42.424	285.51	341.79	67.9	245.75	214.94	67.493	374.23	74.945	43.064	370.96	86.129	-45.932	421.89	355.98	-195.89	373.96	366.15	-180.36	406.4	406.58	-193.79	463.41	298.06	-239.07	614.01	198.11	-187.71	594.38	203.22	-102.76	430.88	63.685	3.2951	375.76	55.641	-42.09	374.3	46.979	36.629	255.31	44.196	-10.1	265.64	33.937	37.908	652.78	234.01	-149.06	622.16	181.92	-106.09	628.38	176.86	-184.23	552.63	84.925	-143.64	580.33	84.27	-192.01
